{"title":"Flight 2012 CAM XViD - INSPiRAL","uid":7821759,"size":1520306067,"categoryP":"video","categoryS":"movies","magnet":"?xt=urn:btih:861e3c9b5574c1cb40362ae96d57d1690dceae54&amp;dn=Flight+2012+CAM+XViD+-+INSPiRAL&amp;tr=udp%3A%2F%2Ftracker.openbittorrent.com%3A80&amp;tr=udp%3A%2F%2Fopen.demonii.com%3A1337&amp;tr=udp%3A%2F%2Ftracker.coppersurfer.tk%3A6969&amp;tr=udp%3A%2F%2Fexodus.desync.com%3A6969","seeders":2,"leechers":0,"uploader":"Acesn8s","files":-1,"time":1352839565,"description":"Flight 2012 CAM XViD - INSPiRAL\n\nSOURCES:\n\nVIDEO -  HP THANKS\nAUDIO -  HP THANKS\nSUBS  - None Add\n\nSTATS:\n\nVideo\nID                               : 0\nFormat                           : MPEG-4 Visual\nFormat profile                   : Advanced Simple@L5\nFormat settings, BVOP            : 2\nFormat settings, QPel            : No\nFormat settings, GMC             : No warppoints\nFormat settings, Matrix          : Default (MPEG)\nMuxing mode                      : Packed bitstream\nCodec ID                         : XVID\nCodec ID/Hint                    : XviD\nDuration                         : 2h 3mn\nBit rate                         : 1 462 Kbps\nWidth                            : 624 pixels\nHeight                           : 256 pixels\nDisplay aspect ratio             : 2.40:1\nFrame rate                       : 29.970 fps\nColor space                      : YUV\nChroma subsampling               : 4:2:0\nBit depth                        : 8 bits\nScan type                        : Progressive\nCompression mode                 : Lossy\nBits/(Pixel*Frame)               : 0.305\nStream size                      : 1.27 GiB (91%)\nWriting library                  : XviD 64\n\nAudio\nID                               : 1\nFormat                           : MPEG Audio\nFormat version                   : Version 1\nFormat profile                   : Layer 3\nMode                             : Joint stereo\nMode extension                   : MS Stereo\nCodec ID                         : 55\nCodec ID/Hint                    : MP3\nDuration                         : 2h 3mn\nBit rate mode                    : Constant\nBit rate                         : 128 Kbps\nChannel(s)                       : 2 channels\nSampling rate                    : 48.0 KHz\nCompression mode                 : Lossy\nStream size                      : 113 MiB (8%)\nAlignment                        : Split accross interleaves\nInterleave, duration             : 33 ms (1.00 video frame)\nInterleave, preload duration     : 500 ms\n\n\nIMDB: &lt;a href=&quot; http://www.imdb.com/title/tt1907668/&quot; rel=&quot;nofollow&quot; target=&quot;_NEW&quot;&gt; http://www.imdb.com/title/tt1907668/&lt;/a&gt;\n\n\n\nAn airline pilot saves a flight from crashing, but an investigation into the malfunctions reveals something troubling.\n\n\n\nVIDEO - Another release by HP,thanks for everything ...Video like all the other hp ones had a small res,some slight camera movement,some strong glares but decent balanced colours.\n\nAudio - ok for cam audio but was on the quiet side and some hiss,but heard alot worse.\n\nWORKDONE:\nFirst off rotated video slightly ,still not straight at the start but levels up better after a short while.Then i cropped the borders and upscaled the video.\nNow doing this makes ANY issues stand out even more and on this video it had some pixel break up issues once upscaled,so had to use a HQ smoother and on a higher setting than i would have like,but doing this make sit play better ( still shots won't show this).\nAfter i tweaked the contrast,brightness,rgb colours,sat and used the intes to lower the glares....\n\nAudio i stripped and dropped in AA ....now the audio was quiet and contained hissing,and of course it needed to be upped in volume which made the hiss even worse....so after increasing the DB's i had to lower several eq bands to reduce the hiss,but couldn't remove it all without killing the audio.\n\nEither enjoy untill a better source comes along  :)\n\nScreens \n &lt;a href=&quot;\nhttp://i.imgrz.com/q6bHp.png&quot; rel=&quot;nofollow&quot; target=&quot;_NEW&quot;&gt;\nhttp://i.imgrz.com/q6bHp.png&lt;/a&gt; &lt;a href=&quot;\nhttp://i.imgrz.com/KZ8rU.png&quot; rel=&quot;nofollow&quot; target=&quot;_NEW&quot;&gt;\nhttp://i.imgrz.com/KZ8rU.png&lt;/a&gt; &lt;a href=&quot;\nhttp://i.imgrz.com/O2Jhk.png&quot; rel=&quot;nofollow&quot; target=&quot;_NEW&quot;&gt;\nhttp://i.imgrz.com/O2Jhk.png&lt;/a&gt;\n","torrent":{"xt":"urn:btih:861e3c9b5574c1cb40362ae96d57d1690dceae54","amp;dn":"Flight+2012+CAM+XViD+-+INSPiRAL","amp;tr":["udp%3A%2F%2Ftracker.openbittorrent.com%3A80","udp%3A%2F%2Fopen.demonii.com%3A1337","udp%3A%2F%2Ftracker.coppersurfer.tk%3A6969","udp%3A%2F%2Fexodus.desync.com%3A6969"],"infoHash":"861e3c9b5574c1cb40362ae96d57d1690dceae54","infoHashBuffer":{"type":"Buffer","data":[134,30,60,155,85,116,193,203,64,54,42,233,109,87,209,105,13,206,174,84]},"announce":[],"urlList":[]}}